<svg xmlns="http://www.w3.org/2000/svg" xmlns:xlink="http://www.w3.org/1999/xlink" contentStyleType="text/css" data-diagram-type="CLASS" height="597px" preserveAspectRatio="none" style="width:991px;height:597px;background:#FFFFFF;" version="1.1" viewBox="0 0 991 597" width="991px" zoomAndPan="magnify"><defs/><g><!--class CoupeGlacee--><g class="entity" data-entity="CoupeGlacee" data-source-line="2" data-uid="ent0002" id="entity_CoupeGlacee"><rect fill="#F1F1F1" height="80.5938" rx="2.5" ry="2.5" style="stroke:#181818;stroke-width:0.5;" width="170.4639" x="342.28" y="163.89"/><ellipse cx="377.759" cy="179.89" fill="#A9DCDF" rx="11" ry="11" style="stroke:#181818;stroke-width:1;"/><path d="M377.8683,175.2338 L376.7121,180.3119 L379.0402,180.3119 L377.8683,175.2338 Z M376.384,172.9994 L379.3683,172.9994 L382.7277,185.39 L380.2746,185.39 L379.509,182.3275 L376.2277,182.3275 L375.4777,185.39 L373.0402,185.39 L376.384,172.9994 Z " fill="#000000"/><text fill="#000000" font-family="sans-serif" font-size="14" font-style="italic" lengthAdjust="spacing" textLength="92.9551" x="396.3098" y="184.7367">CoupeGlacee</text><line style="stroke:#181818;stroke-width:0.5;" x1="343.28" x2="511.7439" y1="195.89" y2="195.89"/><line style="stroke:#181818;stroke-width:0.5;" x1="343.28" x2="511.7439" y1="203.89" y2="203.89"/><ellipse cx="353.28" cy="217.5384" fill="#84BE84" rx="3" ry="3" style="stroke:#038048;stroke-width:1;"/><text fill="#000000" font-family="sans-serif" font-size="14" lengthAdjust="spacing" textLength="98.6289" x="362.28" y="220.8851">Prix() : double</text><ellipse cx="353.28" cy="233.8353" fill="#84BE84" rx="3" ry="3" style="stroke:#038048;stroke-width:1;"/><text fill="#000000" font-family="sans-serif" font-size="14" lengthAdjust="spacing" textLength="144.4639" x="362.28" y="237.182">Description() : string</text></g><!--class TripleChocolat--><g class="entity" data-entity="TripleChocolat" data-source-line="7" data-uid="ent0003" id="entity_TripleChocolat"><rect fill="#F1F1F1" height="48" rx="2.5" ry="2.5" style="stroke:#181818;stroke-width:0.5;" width="133.0215" x="7" y="369.67"/><ellipse cx="22" cy="385.67" fill="#ADD1B2" rx="11" ry="11" style="stroke:#181818;stroke-width:1;"/><path d="M24.9688,391.3106 Q24.3906,391.6075 23.75,391.7481 Q23.1094,391.9044 22.4063,391.9044 Q19.9063,391.9044 18.5781,390.2638 Q17.2656,388.6075 17.2656,385.4825 Q17.2656,382.3575 18.5781,380.7013 Q19.9063,379.045 22.4063,379.045 Q23.1094,379.045 23.75,379.2013 Q24.4063,379.3575 24.9688,379.6544 L24.9688,382.3731 Q24.3438,381.795 23.75,381.5294 Q23.1563,381.2481 22.5313,381.2481 Q21.1875,381.2481 20.5,382.3263 Q19.8125,383.3888 19.8125,385.4825 Q19.8125,387.5763 20.5,388.6544 Q21.1875,389.7169 22.5313,389.7169 Q23.1563,389.7169 23.75,389.4513 Q24.3438,389.17 24.9688,388.5919 L24.9688,391.3106 Z " fill="#000000"/><text fill="#000000" font-family="sans-serif" font-size="14" lengthAdjust="spacing" textLength="101.0215" x="36" y="390.5167">TripleChocolat</text><line style="stroke:#181818;stroke-width:0.5;" x1="8" x2="139.0215" y1="401.67" y2="401.67"/><line style="stroke:#181818;stroke-width:0.5;" x1="8" x2="139.0215" y1="409.67" y2="409.67"/></g><!--class FruitsRouges--><g class="entity" data-entity="FruitsRouges" data-source-line="8" data-uid="ent0005" id="entity_FruitsRouges"><rect fill="#F1F1F1" height="48" rx="2.5" ry="2.5" style="stroke:#181818;stroke-width:0.5;" width="123.3145" x="174.85" y="369.67"/><ellipse cx="189.85" cy="385.67" fill="#ADD1B2" rx="11" ry="11" style="stroke:#181818;stroke-width:1;"/><path d="M192.8188,391.3106 Q192.2406,391.6075 191.6,391.7481 Q190.9594,391.9044 190.2563,391.9044 Q187.7563,391.9044 186.4281,390.2638 Q185.1156,388.6075 185.1156,385.4825 Q185.1156,382.3575 186.4281,380.7013 Q187.7563,379.045 190.2563,379.045 Q190.9594,379.045 191.6,379.2013 Q192.2563,379.3575 192.8188,379.6544 L192.8188,382.3731 Q192.1938,381.795 191.6,381.5294 Q191.0063,381.2481 190.3813,381.2481 Q189.0375,381.2481 188.35,382.3263 Q187.6625,383.3888 187.6625,385.4825 Q187.6625,387.5763 188.35,388.6544 Q189.0375,389.7169 190.3813,389.7169 Q191.0063,389.7169 191.6,389.4513 Q192.1938,389.17 192.8188,388.5919 L192.8188,391.3106 Z " fill="#000000"/><text fill="#000000" font-family="sans-serif" font-size="14" lengthAdjust="spacing" textLength="91.3145" x="203.85" y="390.5167">FruitsRouges</text><line style="stroke:#181818;stroke-width:0.5;" x1="175.85" x2="297.1645" y1="401.67" y2="401.67"/><line style="stroke:#181818;stroke-width:0.5;" x1="175.85" x2="297.1645" y1="409.67" y2="409.67"/></g><!--class Parfum--><g class="entity" data-entity="Parfum" data-source-line="11" data-uid="ent0007" id="entity_Parfum"><rect fill="#F1F1F1" height="178.375" rx="2.5" ry="2.5" style="stroke:#181818;stroke-width:0.5;" width="189.1807" x="332.92" y="304.48"/><ellipse cx="398.1519" cy="320.48" fill="#ADD1B2" rx="11" ry="11" style="stroke:#181818;stroke-width:1;"/><path d="M401.1207,326.1206 Q400.5426,326.4175 399.9019,326.5581 Q399.2613,326.7144 398.5582,326.7144 Q396.0582,326.7144 394.7301,325.0738 Q393.4176,323.4175 393.4176,320.2925 Q393.4176,317.1675 394.7301,315.5113 Q396.0582,313.855 398.5582,313.855 Q399.2613,313.855 399.9019,314.0113 Q400.5582,314.1675 401.1207,314.4644 L401.1207,317.1831 Q400.4957,316.605 399.9019,316.3394 Q399.3082,316.0581 398.6832,316.0581 Q397.3394,316.0581 396.6519,317.1363 Q395.9644,318.1988 395.9644,320.2925 Q395.9644,322.3863 396.6519,323.4644 Q397.3394,324.5269 398.6832,324.5269 Q399.3082,324.5269 399.9019,324.2613 Q400.4957,323.98 401.1207,323.4019 L401.1207,326.1206 Z " fill="#000000"/><text fill="#000000" font-family="sans-serif" font-size="14" lengthAdjust="spacing" textLength="50.2168" x="418.6519" y="325.3267">Parfum</text><line style="stroke:#181818;stroke-width:0.5;" x1="333.92" x2="521.1007" y1="336.48" y2="336.48"/><rect fill="none" height="6" style="stroke:#C82930;stroke-width:1;" width="6" x="340.92" y="347.1284"/><text fill="#000000" font-family="sans-serif" font-size="14" lengthAdjust="spacing" textLength="91.8818" x="352.92" y="353.4751">_nom : string</text><ellipse cx="343.92" cy="366.4253" fill="none" rx="3" ry="3" style="stroke:#038048;stroke-width:1;"/><text fill="#000000" font-family="sans-serif" font-size="14" lengthAdjust="spacing" textLength="113.9756" x="352.92" y="369.772">CASSIS : Parfum</text><ellipse cx="343.92" cy="382.7222" fill="none" rx="3" ry="3" style="stroke:#038048;stroke-width:1;"/><text fill="#000000" font-family="sans-serif" font-size="14" lengthAdjust="spacing" textLength="163.1807" x="352.92" y="386.0689">CHOCOBLANC : Parfum</text><ellipse cx="343.92" cy="399.0191" fill="none" rx="3" ry="3" style="stroke:#038048;stroke-width:1;"/><text fill="#000000" font-family="sans-serif" font-size="14" lengthAdjust="spacing" textLength="141.8799" x="352.92" y="402.3657">CHOCOLAT : Parfum</text><ellipse cx="343.92" cy="415.3159" fill="none" rx="3" ry="3" style="stroke:#038048;stroke-width:1;"/><text fill="#000000" font-family="sans-serif" font-size="14" lengthAdjust="spacing" textLength="151.2998" x="352.92" y="418.6626">CHOCONOIR : Parfum</text><ellipse cx="343.92" cy="431.6128" fill="none" rx="3" ry="3" style="stroke:#038048;stroke-width:1;"/><text fill="#000000" font-family="sans-serif" font-size="14" lengthAdjust="spacing" textLength="113.0527" x="352.92" y="434.9595">FRAISE : Parfum</text><ellipse cx="343.92" cy="447.9097" fill="none" rx="3" ry="3" style="stroke:#038048;stroke-width:1;"/><text fill="#000000" font-family="sans-serif" font-size="14" lengthAdjust="spacing" textLength="145.7559" x="352.92" y="451.2564">FRAMBOISE : Parfum</text><line style="stroke:#181818;stroke-width:0.5;" x1="333.92" x2="521.1007" y1="458.5581" y2="458.5581"/><ellipse cx="343.92" cy="472.2066" fill="#84BE84" rx="3" ry="3" style="stroke:#038048;stroke-width:1;"/><text fill="#000000" font-family="sans-serif" font-size="14" lengthAdjust="spacing" textLength="123.6279" x="352.92" y="475.5532">ToString() : string</text></g><!--class Commande--><g class="entity" data-entity="Commande" data-source-line="23" data-uid="ent0008" id="entity_Commande"><rect fill="#F1F1F1" height="96.8906" rx="2.5" ry="2.5" style="stroke:#181818;stroke-width:0.5;" width="309.5342" x="272.74" y="7"/><ellipse cx="382.9729" cy="23" fill="#ADD1B2" rx="11" ry="11" style="stroke:#181818;stroke-width:1;"/><path d="M385.9417,28.6406 Q385.3635,28.9375 384.7229,29.0781 Q384.0823,29.2344 383.3792,29.2344 Q380.8792,29.2344 379.551,27.5938 Q378.2385,25.9375 378.2385,22.8125 Q378.2385,19.6875 379.551,18.0313 Q380.8792,16.375 383.3792,16.375 Q384.0823,16.375 384.7229,16.5313 Q385.3792,16.6875 385.9417,16.9844 L385.9417,19.7031 Q385.3167,19.125 384.7229,18.8594 Q384.1292,18.5781 383.5042,18.5781 Q382.1604,18.5781 381.4729,19.6563 Q380.7854,20.7188 380.7854,22.8125 Q380.7854,24.9063 381.4729,25.9844 Q382.1604,27.0469 383.5042,27.0469 Q384.1292,27.0469 384.7229,26.7813 Q385.3167,26.5 385.9417,25.9219 L385.9417,28.6406 Z " fill="#000000"/><text fill="#000000" font-family="sans-serif" font-size="14" lengthAdjust="spacing" textLength="80.5684" x="403.4729" y="27.8467">Commande</text><line style="stroke:#181818;stroke-width:0.5;" x1="273.74" x2="581.2742" y1="39" y2="39"/><rect fill="none" height="6" style="stroke:#C82930;stroke-width:1;" width="6" x="280.74" y="49.6484"/><text fill="#000000" font-family="sans-serif" font-size="14" lengthAdjust="spacing" textLength="266.9707" x="292.74" y="55.9951">_coupesGlacees : List&lt;CoupeGlacee&gt;</text><line style="stroke:#181818;stroke-width:0.5;" x1="273.74" x2="581.2742" y1="63.2969" y2="63.2969"/><ellipse cx="283.74" cy="76.9453" fill="#84BE84" rx="3" ry="3" style="stroke:#038048;stroke-width:1;"/><text fill="#000000" font-family="sans-serif" font-size="14" lengthAdjust="spacing" textLength="283.5342" x="292.74" y="80.292">EnregistrerCommande(c : CoupeGlacee)</text><ellipse cx="283.74" cy="93.2422" fill="#84BE84" rx="3" ry="3" style="stroke:#038048;stroke-width:1;"/><text fill="#000000" font-family="sans-serif" font-size="14" lengthAdjust="spacing" textLength="145.7559" x="292.74" y="96.5889">AfficherCommande()</text></g><!--class SupplementDecorator--><g class="entity" data-entity="SupplementDecorator" data-source-line="33" data-uid="ent0011" id="entity_SupplementDecorator"><rect fill="#F1F1F1" height="64.2969" rx="2.5" ry="2.5" style="stroke:#181818;stroke-width:0.5;" width="186.4512" x="557.29" y="361.52"/><ellipse cx="572.29" cy="377.52" fill="#A9DCDF" rx="11" ry="11" style="stroke:#181818;stroke-width:1;"/><path d="M572.3994,372.8638 L571.2431,377.9419 L573.5713,377.9419 L572.3994,372.8638 Z M570.915,370.6294 L573.8994,370.6294 L577.2588,383.02 L574.8056,383.02 L574.04,379.9575 L570.7588,379.9575 L570.0088,383.02 L567.5713,383.02 L570.915,370.6294 Z " fill="#000000"/><text fill="#000000" font-family="sans-serif" font-size="14" font-style="italic" lengthAdjust="spacing" textLength="154.4512" x="586.29" y="382.3667">SupplementDecorator</text><line style="stroke:#181818;stroke-width:0.5;" x1="558.29" x2="742.7412" y1="393.52" y2="393.52"/><rect fill="none" height="6" style="stroke:#C82930;stroke-width:1;" width="6" x="565.29" y="404.1684"/><text fill="#000000" font-family="sans-serif" font-size="14" lengthAdjust="spacing" textLength="156.208" x="577.29" y="410.5151">_coupe : CoupeGlacee</text><line style="stroke:#181818;stroke-width:0.5;" x1="558.29" x2="742.7412" y1="417.8169" y2="417.8169"/></g><!--class ChantillyDecorator--><g class="entity" data-entity="ChantillyDecorator" data-source-line="37" data-uid="ent0013" id="entity_ChantillyDecorator"><rect fill="#F1F1F1" height="48" rx="2.5" ry="2.5" style="stroke:#181818;stroke-width:0.5;" width="163.3457" x="338.84" y="542.86"/><ellipse cx="353.84" cy="558.86" fill="#ADD1B2" rx="11" ry="11" style="stroke:#181818;stroke-width:1;"/><path d="M356.8088,564.5006 Q356.2306,564.7975 355.59,564.9381 Q354.9494,565.0944 354.2463,565.0944 Q351.7463,565.0944 350.4181,563.4538 Q349.1056,561.7975 349.1056,558.6725 Q349.1056,555.5475 350.4181,553.8913 Q351.7463,552.235 354.2463,552.235 Q354.9494,552.235 355.59,552.3913 Q356.2463,552.5475 356.8088,552.8444 L356.8088,555.5631 Q356.1838,554.985 355.59,554.7194 Q354.9963,554.4381 354.3713,554.4381 Q353.0275,554.4381 352.34,555.5163 Q351.6525,556.5788 351.6525,558.6725 Q351.6525,560.7663 352.34,561.8444 Q353.0275,562.9069 354.3713,562.9069 Q354.9963,562.9069 355.59,562.6413 Q356.1838,562.36 356.8088,561.7819 L356.8088,564.5006 Z " fill="#000000"/><text fill="#000000" font-family="sans-serif" font-size="14" lengthAdjust="spacing" textLength="131.3457" x="367.84" y="563.7067">ChantillyDecorator</text><line style="stroke:#181818;stroke-width:0.5;" x1="339.84" x2="501.1857" y1="574.86" y2="574.86"/><line style="stroke:#181818;stroke-width:0.5;" x1="339.84" x2="501.1857" y1="582.86" y2="582.86"/></g><!--class NappageChocolatDecorator--><g class="entity" data-entity="NappageChocolatDecorator" data-source-line="38" data-uid="ent0015" id="entity_NappageChocolatDecorator"><rect fill="#F1F1F1" height="48" rx="2.5" ry="2.5" style="stroke:#181818;stroke-width:0.5;" width="226.1406" x="537.44" y="542.86"/><ellipse cx="552.44" cy="558.86" fill="#ADD1B2" rx="11" ry="11" style="stroke:#181818;stroke-width:1;"/><path d="M555.4088,564.5006 Q554.8306,564.7975 554.19,564.9381 Q553.5494,565.0944 552.8463,565.0944 Q550.3463,565.0944 549.0181,563.4538 Q547.7056,561.7975 547.7056,558.6725 Q547.7056,555.5475 549.0181,553.8913 Q550.3463,552.235 552.8463,552.235 Q553.5494,552.235 554.19,552.3913 Q554.8463,552.5475 555.4088,552.8444 L555.4088,555.5631 Q554.7838,554.985 554.19,554.7194 Q553.5963,554.4381 552.9713,554.4381 Q551.6275,554.4381 550.94,555.5163 Q550.2525,556.5788 550.2525,558.6725 Q550.2525,560.7663 550.94,561.8444 Q551.6275,562.9069 552.9713,562.9069 Q553.5963,562.9069 554.19,562.6413 Q554.7838,562.36 555.4088,561.7819 L555.4088,564.5006 Z " fill="#000000"/><text fill="#000000" font-family="sans-serif" font-size="14" lengthAdjust="spacing" textLength="194.1406" x="566.44" y="563.7067">NappageChocolatDecorator</text><line style="stroke:#181818;stroke-width:0.5;" x1="538.44" x2="762.5806" y1="574.86" y2="574.86"/><line style="stroke:#181818;stroke-width:0.5;" x1="538.44" x2="762.5806" y1="582.86" y2="582.86"/></g><!--class CoulisFraiseDecorator--><g class="entity" data-entity="CoulisFraiseDecorator" data-source-line="39" data-uid="ent0017" id="entity_CoulisFraiseDecorator"><rect fill="#F1F1F1" height="48" rx="2.5" ry="2.5" style="stroke:#181818;stroke-width:0.5;" width="186.2734" x="798.37" y="542.86"/><ellipse cx="813.37" cy="558.86" fill="#ADD1B2" rx="11" ry="11" style="stroke:#181818;stroke-width:1;"/><path d="M816.3388,564.5006 Q815.7606,564.7975 815.12,564.9381 Q814.4794,565.0944 813.7763,565.0944 Q811.2763,565.0944 809.9481,563.4538 Q808.6356,561.7975 808.6356,558.6725 Q808.6356,555.5475 809.9481,553.8913 Q811.2763,552.235 813.7763,552.235 Q814.4794,552.235 815.12,552.3913 Q815.7763,552.5475 816.3388,552.8444 L816.3388,555.5631 Q815.7138,554.985 815.12,554.7194 Q814.5263,554.4381 813.9013,554.4381 Q812.5575,554.4381 811.87,555.5163 Q811.1825,556.5788 811.1825,558.6725 Q811.1825,560.7663 811.87,561.8444 Q812.5575,562.9069 813.9013,562.9069 Q814.5263,562.9069 815.12,562.6413 Q815.7138,562.36 816.3388,561.7819 L816.3388,564.5006 Z " fill="#000000"/><text fill="#000000" font-family="sans-serif" font-size="14" lengthAdjust="spacing" textLength="154.2734" x="827.37" y="563.7067">CoulisFraiseDecorator</text><line style="stroke:#181818;stroke-width:0.5;" x1="799.37" x2="983.6434" y1="574.86" y2="574.86"/><line style="stroke:#181818;stroke-width:0.5;" x1="799.37" x2="983.6434" y1="582.86" y2="582.86"/></g><!--reverse link CoupeGlacee to TripleChocolat--><g class="link" data-entity-1="CoupeGlacee" data-entity-2="TripleChocolat" data-source-line="7" data-uid="lnk4" id="link_CoupeGlacee_TripleChocolat"><path d="M324.6557,230.7461 C269.1057,246.6561 214.08,267.34 157.51,304.48 C130.82,322.01 106.39,349.54 90.84,369.18" fill="none" id="CoupeGlacee-backto-TripleChocolat" style="stroke:#181818;stroke-width:1;"/><polygon fill="none" points="341.96,225.79,323.0037,224.978,326.3078,236.5142,341.96,225.79" style="stroke:#181818;stroke-width:1;"/></g><!--reverse link CoupeGlacee to FruitsRouges--><g class="link" data-entity-1="CoupeGlacee" data-entity-2="FruitsRouges" data-source-line="8" data-uid="lnk6" id="link_CoupeGlacee_FruitsRouges"><path d="M366.7855,256.6479 C346.3555,274.3779 336.05,284.05 315.51,304.48 C294.24,325.65 271.53,351.36 255.95,369.54" fill="none" id="CoupeGlacee-backto-FruitsRouges" style="stroke:#181818;stroke-width:1;"/><polygon fill="none" points="380.38,244.85,362.8529,252.1164,370.7181,261.1794,380.38,244.85" style="stroke:#181818;stroke-width:1;"/></g><!--reverse link Commande to CoupeGlacee--><g class="link" data-entity-1="Commande" data-entity-2="CoupeGlacee" data-source-line="29" data-uid="lnk9" id="link_Commande_CoupeGlacee"><path codeLine="29" d="M427.51,116.09 C427.51,135.34 427.51,145.29 427.51,163.63" fill="none" id="Commande-backto-CoupeGlacee" style="stroke:#181818;stroke-width:1;"/><polygon fill="none" points="427.51,104.09,423.51,110.09,427.51,116.09,431.51,110.09,427.51,104.09" style="stroke:#181818;stroke-width:1;"/><text fill="#000000" font-family="sans-serif" font-size="13" lengthAdjust="spacing" textLength="8.271" x="418.967" y="124.0616">1</text><text fill="#000000" font-family="sans-serif" font-size="13" lengthAdjust="spacing" textLength="6.5" x="421.0542" y="152.7485">*</text></g><!--link CoupeGlacee to Parfum--><g class="link" data-entity-1="CoupeGlacee" data-entity-2="Parfum" data-source-line="30" data-uid="lnk10" id="link_CoupeGlacee_Parfum"><path codeLine="30" d="M427.51,244.95 C427.51,262.36 427.51,277.54 427.51,298.37" fill="none" id="CoupeGlacee-to-Parfum" style="stroke:#181818;stroke-width:1;"/><polygon fill="#181818" points="427.51,304.37,431.51,295.37,427.51,299.37,423.51,295.37,427.51,304.37" style="stroke:#181818;stroke-width:1;"/><text fill="#000000" font-family="sans-serif" font-size="13" lengthAdjust="spacing" textLength="6.5" x="421.0886" y="264.4174">*</text><text fill="#000000" font-family="sans-serif" font-size="13" lengthAdjust="spacing" textLength="23.0356" x="403.5591" y="293.4264">1..*</text></g><!--reverse link CoupeGlacee to SupplementDecorator--><g class="link" data-entity-1="CoupeGlacee" data-entity-2="SupplementDecorator" data-source-line="34" data-uid="lnk12" id="link_CoupeGlacee_SupplementDecorator"><path d="M477.4851,257.0513 C515.5951,291.6613 561.42,329.07 603.05,361.04" fill="none" id="CoupeGlacee-backto-SupplementDecorator" style="stroke:#181818;stroke-width:1;"/><polygon fill="none" points="464.16,244.95,473.4513,261.493,481.5189,252.6096,464.16,244.95" style="stroke:#181818;stroke-width:1;"/></g><!--link SupplementDecorator to CoupeGlacee--><g class="link" data-entity-1="SupplementDecorator" data-entity-2="CoupeGlacee" data-source-line="41" data-uid="lnk19" id="link_SupplementDecorator_CoupeGlacee"><path codeLine="41" d="M623.3,361.04 C589.07,329.07 535.2122,283.2487 490.8122,248.6387" fill="none" id="SupplementDecorator-to-CoupeGlacee" style="stroke:#181818;stroke-width:1;"/><polygon fill="#181818" points="486.08,244.95,490.7191,253.6379,490.0235,248.0239,495.6374,247.3283,486.08,244.95" style="stroke:#181818;stroke-width:1;"/></g><!--reverse link SupplementDecorator to ChantillyDecorator--><g class="link" data-entity-1="SupplementDecorator" data-entity-2="ChantillyDecorator" data-source-line="37" data-uid="lnk14" id="link_SupplementDecorator_ChantillyDecorator"><path d="M597.9288,437.6022 C576.7888,454.6822 563.99,464.63 539.51,482.86 C511.63,503.62 479.23,526.12 455.28,542.45" fill="none" id="SupplementDecorator-backto-ChantillyDecorator" style="stroke:#181818;stroke-width:1;"/><polygon fill="none" points="611.93,426.29,594.1581,432.9352,601.6995,442.2693,611.93,426.29" style="stroke:#181818;stroke-width:1;"/></g><!--reverse link SupplementDecorator to NappageChocolatDecorator--><g class="link" data-entity-1="SupplementDecorator" data-entity-2="NappageChocolatDecorator" data-source-line="38" data-uid="lnk16" id="link_SupplementDecorator_NappageChocolatDecorator"><path d="M650.51,444.07 C650.51,477.66 650.51,512.17 650.51,542.36" fill="none" id="SupplementDecorator-backto-NappageChocolatDecorator" style="stroke:#181818;stroke-width:1;"/><polygon fill="none" points="650.51,426.07,644.51,444.07,656.51,444.07,650.51,426.07" style="stroke:#181818;stroke-width:1;"/></g><!--reverse link SupplementDecorator to CoulisFraiseDecorator--><g class="link" data-entity-1="SupplementDecorator" data-entity-2="CoulisFraiseDecorator" data-source-line="39" data-uid="lnk18" id="link_SupplementDecorator_CoulisFraiseDecorator"><path d="M709.6656,436.6924 C757.0056,470.3124 816.1,512.3 858.51,542.42" fill="none" id="SupplementDecorator-backto-CoulisFraiseDecorator" style="stroke:#181818;stroke-width:1;"/><polygon fill="none" points="694.99,426.27,706.1915,441.5842,713.1398,431.8005,694.99,426.27" style="stroke:#181818;stroke-width:1;"/></g><!--SRC=[bLBBRkem4DtdAqPiW5QfTBTLLIaDvLua2eYmhumPm99ZMtv8hQf-KB-ZFzP972105hriWkQSEJvpPlem-lxQ2YMyq0esw81BvXnzDmXhvZ1XQ-Sjupu2aEjWyAza714-4g3VxSAAjy4Gxc6ZmrfYB8xGSIjC9LjZ92BKBlbCagYp8b1YljTSI-O1tpogpPbyGnpR8BnRwh0ZKrsqf0zvxHaMp6v32GCdoY2_ln0Ciy1rQRIhvnisaWqlsazVbIvF1clpULOKauAAaTaK_ytp-TCqc-LTm3HRTPLdyydoeZvUPfFY-RhuyZI_hgzqKVkwoB0FKqOXb2LJj2UkbHUeF1WPdC1WQOjLG2uvxAmX7YQEQCpFaV1KEF_GolGnFlwiBEu8icWF4WDEz1Pp69dPTYlulaKRLYwFx_R-z42dAVHkUcUhQnzJXQNf8t7lxkXl4m9Dkc3UerKmGgujyzg2qS629ESk64EBBcbsTtceHOLX1PqQEyxdF9FpuKxNckyPHIpb-xLMnpjDqumPmtR76_-VLZ8XXHjR9Xp-hY_fchVAipNF3m00]--></g></svg>